<svg width="25" height="24" viewBox="0 0 25 24" fill="none" xmlns="http://www.w3.org/2000/svg">
<path d="M12.5 7C12.2167 7 11.979 7.096 11.787 7.288C11.595 7.48 11.4993 7.71733 11.5 8C11.5 8.28333 11.596 8.521 11.788 8.713C11.98 8.905 12.2173 9.00067 12.5 9C12.7833 9 13.021 8.904 13.213 8.712C13.405 8.52 13.5007 8.28267 13.5 8C13.5 7.71667 13.404 7.479 13.212 7.287C13.02 7.095 12.7827 6.99933 12.5 7ZM13.5 11H11.5L11.5 17H13.5L13.5 11ZM12.5 2C13.8833 2 15.1833 2.26267 16.4 2.788C17.6167 3.31333 18.675 4.02567 19.575 4.925C20.475 5.825 21.1873 6.88333 21.712 8.1C22.2367 9.31667 22.4993 10.6167 22.5 12C22.5 13.3833 22.2373 14.6833 21.712 15.9C21.1867 17.1167 20.4743 18.175 19.575 19.075C18.675 19.975 17.6167 20.6873 16.4 21.212C15.1833 21.7367 13.8833 21.9993 12.5 22C11.1167 22 9.81667 21.7373 8.6 21.212C7.38333 20.6867 6.325 19.9743 5.425 19.075C4.525 18.175 3.81233 17.1167 3.287 15.9C2.76167 14.6833 2.49933 13.3833 2.5 12C2.5 10.6167 2.76267 9.31667 3.288 8.1C3.81333 6.88333 4.52567 5.825 5.425 4.925C6.325 4.025 7.38333 3.31233 8.6 2.787C9.81667 2.26167 11.1167 1.99933 12.5 2ZM12.5 4C10.2667 4 8.375 4.775 6.825 6.325C5.275 7.875 4.5 9.76667 4.5 12C4.5 14.2333 5.275 16.125 6.825 17.675C8.375 19.225 10.2667 20 12.5 20C14.7333 20 16.625 19.225 18.175 17.675C19.725 16.125 20.5 14.2333 20.5 12C20.5 9.76667 19.725 7.875 18.175 6.325C16.625 4.775 14.7333 4 12.5 4Z" fill="white"/>
</svg>
